<?xml version="1.0" encoding="iso-8859-1"?>
<!-- Generator: Adobe Illustrator 19.0.0, SVG Export Plug-In . SVG Version: 6.00 Build 0)  -->
<svg version="1.1" id="Capa_1" xmlns="http://www.w3.org/2000/svg" xmlns:xlink="http://www.w3.org/1999/xlink" x="0px" y="0px"
	 viewBox="0 0 512 512" style="enable-background:new 0 0 512 512;" xml:space="preserve">
<path style="fill:#FFE4D2;" d="M325.094,230.08c-1.298,15.102-4.904,29.453-10.436,42.732
	c-4.976,11.919-11.507,22.983-19.326,32.945c-0.01,0.185-0.031,0.371-0.041,0.556c-0.577,7.984-1.349,15.525-2.308,22.633
	c-9.138,68.754-33.934,97.702-41.836,105.356c-1.442,1.401-3.389,2.174-5.398,2.174H7.789c-4.296,0-7.788-3.492-7.788-7.798v-44.906
	c0-3.266,2.029-6.202,5.089-7.304c17.781-6.449,29.968-15.896,38.22-26.486c2.967-3.791,5.439-7.726,7.469-11.723
	c1.71-3.358,3.132-6.758,4.275-10.168c5.975-17.616,4.636-36.788-2.73-53.868c-8.88-20.614-13.021-43.618-11.116-67.528
	c6.264-78.716,74.441-136.931,153.157-130.719c44.339,3.503,82.27,26.908,105.799,60.729
	C318.46,163.016,328.03,195.641,325.094,230.08z"/>
<g>
	<path style="fill:#CE9E89;" d="M325.092,230.076c-1.292,15.106-4.898,29.458-10.436,42.735h-49.782
		c-7.822,0-15.065-4.226-18.898-11.035l-3.337-5.9c-3.1-5.507-3.637-11.893-1.622-17.71c-2.676-5.807-2.666-12.492,0.145-18.371
		l33.705-70.633c3.523-7.398,10.818-12.13,19.012-12.347c2.025-0.052,4.123-0.083,6.282-0.114
		C318.458,163.018,328.026,195.638,325.092,230.076z"/>
	<path style="fill:#CE9E89;" d="M111.891,436.478H7.791c-4.298,0-7.791-3.492-7.791-7.801v-44.905c0-3.265,2.025-6.199,5.094-7.305
		c17.772-6.447,29.964-15.891,38.22-26.482c2.965-3.792,5.435-7.729,7.46-11.727c4.546,1.55,12.616,4.608,21.471,9.434
		c18.65,10.147,31.669,22.835,38.685,37.724C118.328,401.11,118.648,418.262,111.891,436.478z"/>
</g>
<path style="fill:#935C44;" d="M97.394,436.478H7.791c-4.298,0-7.791-3.492-7.791-7.801v-44.905c0-3.265,2.025-6.199,5.094-7.305
	c17.772-6.447,29.964-15.891,38.22-26.482C43.314,349.985,125.53,372.985,97.394,436.478z"/>
<path style="fill:#E86300;" d="M254.34,249.277l3.329,5.901c1.465,2.598,4.217,4.205,7.199,4.205H440.31c0,0,38.23,0,38.23-29.576
	l-217.272,7.147C255.065,237.158,251.291,243.871,254.34,249.277z"/>
<path style="fill:#FF8800;" d="M253.284,225.576l33.7-70.626c1.339-2.807,4.132-4.624,7.241-4.704
	c32.008-0.818,204.923-1.546,217.669,77.67c0.802,4.986-3.13,9.485-8.18,9.485h-242.97
	C254.666,237.402,250.666,231.062,253.284,225.576z"/>
<path style="fill:#F4B400;" d="M503.716,237.405h-0.422c-15.329-77.202-185.577-76.47-217.306-75.667
	c-0.845,0.021-1.669,0.175-2.452,0.443l3.451-7.232c1.339-2.802,4.131-4.625,7.242-4.698c32.008-0.824,204.923-1.556,217.667,77.665
	C512.699,232.903,508.764,237.405,503.716,237.405z"/>
<path style="fill:#E86300;" d="M308.446,185.616h-0.775c-4.268,0-7.726-3.459-7.726-7.726s3.459-7.726,7.726-7.726h0.775
	c4.268,0,7.726,3.459,7.726,7.726S312.714,185.616,308.446,185.616z"/>
<g>
	<path style="fill:#CE9E89;" d="M214.837,395.095h-0.775c-4.268,0-7.726-3.459-7.726-7.726s3.459-7.726,7.726-7.726h0.775
		c4.268,0,7.726,3.459,7.726,7.726S219.105,395.095,214.837,395.095z"/>
	<path style="fill:#CE9E89;" d="M229.356,412.255h-0.775c-4.268,0-7.726-3.459-7.726-7.726c0-4.268,3.459-7.726,7.726-7.726h0.775
		c4.268,0,7.726,3.459,7.726,7.726S233.624,412.255,229.356,412.255z"/>
</g>
<circle style="fill:#72402F;" cx="218.76" cy="172.08" r="16.664"/>
<path style="fill:#CE9E89;" d="M295.291,306.313c-0.577,7.984-1.349,15.525-2.308,22.633
	c-16.462,11.888-47.512,27.094-100.69,29.978c-0.134,0-0.278,0.01-0.422,0.01c-4.069,0-7.479-3.194-7.706-7.314
	c-0.227-4.255,3.039-7.902,7.294-8.128C264.447,339.547,290.933,311.567,295.291,306.313z"/>
<g>
</g>
<g>
</g>
<g>
</g>
<g>
</g>
<g>
</g>
<g>
</g>
<g>
</g>
<g>
</g>
<g>
</g>
<g>
</g>
<g>
</g>
<g>
</g>
<g>
</g>
<g>
</g>
<g>
</g>
</svg>
