<svg height="512" viewBox="0 0 56 58" width="512" xmlns="http://www.w3.org/2000/svg"><g id="014---Eagle" fill="none" transform="translate(0 -1)"><path id="Shape" d="m46.79 48.37c-2.79-2.37-9.47-10.77-8.79-24.04l6.9-12c-.52-2.59-3.25-11.33-16.9-11.33-9.78 0-19 5.22-24.61 12.48-.05869863.0831042-.06117826.1934916-.00627048.2791477.05490778.0856562.1562485.1294921.25627048.1108523 2.13-.45 1.55-.31 2.46-.49.22132914-.0475177.44697146.0595948.55007866.2611225.10310721.2015278.05795293.4471874-.11007866.5988775-1.39246675 1.204281-2.53710173 2.668191-3.37 4.31-.03352391.0880328-.01471786.187436.04864785.2571383s.16053219.0978688.25135215.0728617l2.53-.62c.18515274-.0539492.38473198.0057242.5098829.1524528.12515092.1467287.15259628.3532221.0701171.5275472-1.63 3.55-7 18.18-5.65 37.84.03960048.1864264.18173925.3341269.36650912.3808503s.3800326-.0156572.50349088-.1608503c2.15379392-3.3358533 5.00615494-6.1643309 8.36-8.29.1537329-.0864471.3420631-.0836051.4931175.0074414s.241524.2562482.2368825.4325586c-.0182112 2.3627168.8568762 4.6450877 2.45 6.39.1177183.145301.3066785.2127676.4898027.1748798.1831243-.0378878.3297999-.1747962.3801973-.3548798.8414175-3.1955249 2.7906461-5.9882379 5.5-7.88.15-.08.33-.08.48 0 1.7 1.13 2.93 3.74 3.58 5.71.555789 1.7617702.9376132 3.5737606 1.14 5.41.0189995.166034.1196935.3115986.2683558.3879387s.3256353.0733613.4716442-.0079387c7-4 7.19-8.45 7.27-8.6.0462039-.1744833.1845912-.3094373.36018-.3512441.1755887-.0418069.3599438.0163037.47982.1512441 1.4330259 1.6212613 2.6931672 3.38747 3.76 5.27.085548.1669831.2573785.2720197.445.2720197s.359452-.1050366.445-.2720197c.8830411-2.1263023 1.4328379-4.3760841 1.63-6.67 6.76.6 5.54.52 6.39.57.2706195.0994112.5705887-.0393805.67-.31.0994112-.2706195-.0393805-.5705887-.31-.67z" fill="#f9eab0"/><path id="Shape" d="m44.54 49.08c-4.84-.43-4.35-.34-5.64-.65-.1387051-.0247493-.2811026.0154333-.3864094.1090394-.1053069.0936061-.1619072.2303105-.1535906.3709606-.1238203 1.999862-.5277616 3.9724421-1.2 5.86-.9814547-1.6499078-2.1164911-3.203468-3.39-4.64-.1198762-.1349404-.3042313-.193051-.47982-.1512441-.1755888.0418068-.3139761.1767608-.36018.3512441-.0043353.023132-.0043353.046868 0 .07-.71 4.37-5.48 7.51-7.25 8.53-.1460089.0813-.3229819.0842788-.4716442.0079387s-.2493563-.2219047-.2683558-.3879387c-.43-3.62-1.69-8.89-4.62-11.06-.1735822-.123589-.4064178-.123589-.58 0-2.7093539 1.8917621-4.6585825 4.6844751-5.5 7.88-1.3362711-1.7645147-2.0406556-3.926975-2-6.14.0243987-.1684901-.0483774-.3363238-.1880481-.4336701-.1396708-.0973462-.3223198-.1075361-.4719519-.0263299l-.64.43c.0009989-.1745321-.0909147-.3364206-.2412994-.4250033-.1503847-.0885828-.3365362-.0904861-.4887006-.0049967-2.7181232 1.7031267-5.09253928 3.9011576-7 6.48-.96-18.89 3.64-32.85 5.07-36.31.0802444-.1647265.05970743-.3607672-.05293327-.5052873-.1126407-.1445202-.29773234-.2123049-.47706673-.1747127l-1.18.33c-.08397694-.2343877-.32492006-.3738811-.57-.33l-.67.17c.73763077-1.5670392 1.75417992-2.9868195 3-4.19.34-.34.06-1-.39-.86l-1.24.27c-.09075779-.208995-.31834932-.3227908-.54-.27l-.68.13c.37-.37 6.83-10.35 18.43-12.21 1.2778299-.19224021 2.5678122-.2924979 3.86-.3 12.12.08 14.55 8.74 15 11.29l-6.21 12c-.56 13.31 5.44 21.71 7.93 24.08.1923472.1906452.2137299.4942789.05.71z" fill="#f5efca"/><path id="Shape" d="m27.77 1c-1.2005879.00256323-2.3997546.08273037-3.59.24 1.1876878-.18173091 2.3886909-.26202081 3.59-.24z" fill="#ecf0f1"/><path id="Shape" d="m53 29c.1202298-1.840633-.5236959-3.6494131-1.78-5-1.5-1.62-4.22-3-9.22-3-12 0-13 2-13 2s0-3.77 10.06-6.73c.476946-.1347153.783265-.5984481.72-1.09-.1231196-1.0368996.2087642-2.0763156.91-2.85.2001305-.2164118.4855448-.3335048.78-.32 1.75.05 8 .43 10.53 3 3 2.99 5 6.99 1 13.99z" fill="#f0c419"/><path id="Shape" d="m51.22 24c-4.54 5.2-3.79-1.79-19.22 1 0 0-3 0-3-2 0 0 1-2 13-2 5 0 7.72 1.38 9.22 3z" fill="#f29c1f"/><path id="Shape" d="m31.91 12.28c.2977846 1.1960592-.1663041 2.4525501-1.1700658 3.1678793-1.0037616.7153292-2.3429145.7439156-3.3762877.0720724-1.0333731-.6718431-1.5506583-1.907385-1.3041855-3.1150623.2464729-1.2076773 1.2065427-2.1417082 2.420539-2.3548894z" fill="#f0c419"/><path id="Shape" d="m44 18c-.5522847 0-1-.4477153-1-1s.4477153-1 1-1c.4948899-.1005032.9479564-.3479472 1.3-.71.3921222-.3893607 1.0256392-.3871222 1.415.005.3893607.3921222.3871222 1.0256392-.005 1.415-.7271772.7301648-1.6847638 1.1859902-2.71 1.29z" fill="#e57e25"/><circle id="Oval" cx="29" cy="13" fill="#393f4a" r="2"/><path id="Shape" d="m34.62 14.08c-1.955085-.1576873-3.8004919-.9676941-5.24-2.3-.8947714-.8709902-2.1449591-1.2741573-3.38-1.09-1.92.42-3.12 2.73-3.14 2.76-.2700473.4487927-.8406385.6131719-1.3080622.3768341s-.6732882-.7933069-.4719378-1.2768341c.06-.13 1.62-3.18 4.49-3.81 1.806342-.31463575 3.6559474.23284744 5 1.48 2.18 1.74 3.59 2 4.39 1.83.4462093-.0540908.8580075-.2670899 1.16-.6.3239123-.4021248.9007244-.4915129 1.3311547-.206288s.5729246.8512619.3288453 1.306288c-.7501956.983371-1.923329 1.5513755-3.16 1.53z" fill="#7f6e5d"/></g></svg>